<svg width="16" height="16" viewBox="0 0 16 16" fill="none" xmlns="http://www.w3.org/2000/svg">
<path fill-rule="evenodd" clip-rule="evenodd" d="M2.66666 2.66667C2.66666 2.48986 2.7369 2.32029 2.86193 2.19526C2.98695 2.07024 3.15652 2 3.33333 2H4.33333C4.48653 2 4.63506 2.05276 4.75392 2.1494C4.87279 2.24605 4.95474 2.38069 4.986 2.53067L5.29266 4H12.6667C12.7658 4 12.8636 4.02208 12.9531 4.06465C13.0426 4.10722 13.1214 4.1692 13.1839 4.24608C13.2464 4.32296 13.291 4.41281 13.3145 4.50909C13.3379 4.60537 13.3395 4.70566 13.3193 4.80267L12.486 8.80267C12.4547 8.95265 12.3728 9.08728 12.2539 9.18393C12.1351 9.28058 11.9865 9.33334 11.8333 9.33333H6.40333L6.542 10H11.3333C11.7578 10.0002 12.1713 10.1355 12.5138 10.3863C12.8563 10.6371 13.1101 10.9903 13.2386 11.3949C13.367 11.7996 13.3633 12.2345 13.2281 12.6369C13.093 13.0393 12.8332 13.3883 12.4866 13.6333C12.1399 13.8783 11.7242 14.0066 11.2998 13.9997C10.8753 13.9928 10.4641 13.8511 10.1256 13.5949C9.78703 13.3388 9.53878 12.9816 9.41673 12.575C9.29468 12.1684 9.30516 11.7336 9.44666 11.3333H7.88666C8.01644 11.7011 8.03584 12.0989 7.94248 12.4775C7.84912 12.8562 7.64708 13.1994 7.36121 13.4647C7.07534 13.73 6.71813 13.906 6.33355 13.9709C5.94897 14.0358 5.55379 13.9869 5.19666 13.8301C4.83954 13.6733 4.53605 13.4155 4.32354 13.0885C4.11104 12.7614 3.99881 12.3794 4.00065 11.9894C4.00249 11.5993 4.11833 11.2184 4.33391 10.8933C4.54949 10.5683 4.85541 10.3134 5.214 10.16L3.79066 3.33333H3.33333C3.15652 3.33333 2.98695 3.2631 2.86193 3.13807C2.7369 3.01305 2.66666 2.84348 2.66666 2.66667Z" fill="#DEE2EB"/>
</svg>
